<svg xmlns="http://www.w3.org/2000/svg"  viewBox="0 0 120 120" width="60px" height="60px" baseProfile="basic"><path d="M98.172,36.182L110,25.199l-16.952,4.422c-3.723-3.359-8.638-5.422-14.048-5.422 c-11.598,0-21,9.402-21,21c0,1.34,0.139,2.647,0.379,3.917C25.33,47.69,16,26.999,16,26.999s-5,3.2-5,11.2c0,12,9,17,9,17h-8 c1,14,17,20.5,17,20.5H19c3,9.5,19,14.5,19,14.5c-10,8-28,5-28,5s9,11,35,11c48.593,0,54.896-39.793,54.998-60.48L110,33.299 L98.172,36.182z" opacity=".35"/><path fill="#0075ff" d="M98.172,32.182L110,21.199l-16.952,4.422c-3.723-3.359-8.638-5.422-14.048-5.422 c-11.598,0-21,9.402-21,21c0,1.34,0.139,2.647,0.379,3.917C25.33,43.69,16,22.999,16,22.999s-5,3.2-5,11.2c0,12,9,17,9,17h-8 c1,14,17,20.5,17,20.5H19c3,9.5,19,14.5,19,14.5c-10,8-28,5-28,5s9,11,35,11c48.593,0,54.896-39.793,54.998-60.48L110,29.299 L98.172,32.182z"/></svg>